<svg xmlns="http://www.w3.org/2000/svg" xmlns:xlink="http://www.w3.org/1999/xlink" viewBox="0 0 167.5003 167.5003"><defs><linearGradient id="linear-gradient" x1="83.75015" y1="-0.49563" x2="83.75015" y2="165.38109" gradientTransform="translate(83.75014 -34.69047) rotate(45)" gradientUnits="userSpaceOnUse"><stop offset="0" stop-color="#ffe46e"></stop><stop offset="0.05776" stop-color="#fff082"></stop><stop offset="0.13707" stop-color="#ffff9a"></stop><stop offset="0.15028" stop-color="#f6f18c"></stop><stop offset="0.19542" stop-color="#dbc663"></stop><stop offset="0.23614" stop-color="#c7a845"></stop><stop offset="0.27064" stop-color="#bb9533"></stop><stop offset="0.29477" stop-color="#b78e2c"></stop><stop offset="0.35392" stop-color="#c9a43f"></stop><stop offset="0.46557" stop-color="#f2d66c"></stop><stop offset="0.46812" stop-color="#f1d56b"></stop><stop offset="0.64147" stop-color="#c19a37"></stop><stop offset="0.72439" stop-color="#ae8323"></stop><stop offset="0.7404" stop-color="#a2771f"></stop><stop offset="0.76955" stop-color="#815715"></stop><stop offset="0.80828" stop-color="#4d2304"></stop><stop offset="0.81707" stop-color="#401600"></stop><stop offset="0.83095" stop-color="#5f350a"></stop><stop offset="0.84911" stop-color="#815715"></stop><stop offset="0.86636" stop-color="#9a6f1d"></stop><stop offset="0.88214" stop-color="#a97e21"></stop><stop offset="0.89512" stop-color="#ae8323"></stop><stop offset="0.91791" stop-color="#bb932f"></stop><stop offset="0.96207" stop-color="#debc4f"></stop><stop offset="1" stop-color="#ffe46e"></stop></linearGradient><linearGradient id="linear-gradient-2" x1="83.75015" y1="7.40864" x2="83.75015" y2="151.47545" gradientTransform="translate(83.75014 -34.69047) rotate(45)" gradientUnits="userSpaceOnUse"><stop offset="0" stop-color="#1f1f1f"></stop><stop offset="0.45488" stop-color="#0f0f0f"></stop><stop offset="1"></stop></linearGradient><linearGradient id="linear-gradient-3" x1="85.57237" y1="68.39653" x2="85.57237" y2="94.62358" gradientTransform="matrix(1, 0, 0, 1, 0, 0)" xlink:href="#linear-gradient"></linearGradient><linearGradient id="linear-gradient-6" x1="172.94153" y1="61.0288" x2="40.06908" y2="87.60322" gradientUnits="userSpaceOnUse"><stop offset="0" stop-color="#fff"></stop><stop offset="0.08233" stop-color="#dadada"></stop><stop offset="0.22222" stop-color="#a1a1a1"></stop><stop offset="0.36261" stop-color="#707070"></stop><stop offset="0.50021" stop-color="#474747"></stop><stop offset="0.63456" stop-color="#282828"></stop><stop offset="0.76464" stop-color="#121212"></stop><stop offset="0.88861" stop-color="#050505"></stop><stop offset="1"></stop></linearGradient></defs><g style="isolation: isolate"><g id="Layer_2" data-name="Layer 2"><g id="Layer_1-2" data-name="Layer 1"><g><g><circle cx="83.75018" cy="83.75013" r="83.75019" transform="translate(-34.69042 83.75016) rotate(-45)" fill="url(#linear-gradient)"></circle><circle cx="83.75018" cy="83.75013" r="76.58309" transform="translate(-34.69042 83.75016) rotate(-45)" fill="url(#linear-gradient-2)"></circle></g><g><g><path d="M69.01231,90.5396v4.084H49.34239V68.39653h19.1455v4.084H54.2125v6.81885H66.87657v4.00927H54.2125v7.231Z" fill="#fff"></path><path d="M74.44492,68.39653H79.316v22.106H93.02891v4.12109h-18.584Z" fill="#fff"></path><path d="M114.08457,88.55425H100.97032l-2.585,6.06933h-5.0205l11.80273-26.22705h4.79492l11.83985,26.22705h-5.09571ZM112.47325,84.733l-4.94532-11.46533L102.61973,84.733Z" fill="#fff"></path></g><g><path d="M69.01231,90.5396v4.084H49.34239V68.39653h19.1455v4.084H54.2125v6.81885H66.87657v4.00927H54.2125v7.231Z" fill="url(#linear-gradient-3)"></path><path d="M74.44492,68.39653H79.316v22.106H93.02891v4.12109h-18.584Z" fill="url(#linear-gradient-3)"></path><path d="M114.08457,88.55425H100.97032l-2.585,6.06933h-5.0205l11.80273-26.22705h4.79492l11.83985,26.22705h-5.09571ZM112.47325,84.733l-4.94532-11.46533L102.61973,84.733Z" fill="url(#linear-gradient-3)"></path></g></g><path d="M121.9161,17.3408A76.59569,76.59569,0,1,0,60.5253,156.7436C52.9336,100.2421,79.0377,45.8956,121.9161,17.3408Z" fill="url(#linear-gradient-6)" style="mix-blend-mode: screen"></path></g></g></g></g></svg>