<svg xmlns="http://www.w3.org/2000/svg" xmlns:xlink="http://www.w3.org/1999/xlink" viewBox="0 0 167.5003 167.5003"><defs><linearGradient id="linear-gradient" x1="83.75015" y1="-0.49563" x2="83.75015" y2="165.38109" gradientTransform="translate(83.75014 -34.69047) rotate(45)" gradientUnits="userSpaceOnUse"><stop offset="0" stop-color="#ffe46e"></stop><stop offset="0.05776" stop-color="#fff082"></stop><stop offset="0.13707" stop-color="#ffff9a"></stop><stop offset="0.15028" stop-color="#f6f18c"></stop><stop offset="0.19542" stop-color="#dbc663"></stop><stop offset="0.23614" stop-color="#c7a845"></stop><stop offset="0.27064" stop-color="#bb9533"></stop><stop offset="0.29477" stop-color="#b78e2c"></stop><stop offset="0.35392" stop-color="#c9a43f"></stop><stop offset="0.46557" stop-color="#f2d66c"></stop><stop offset="0.46812" stop-color="#f1d56b"></stop><stop offset="0.64147" stop-color="#c19a37"></stop><stop offset="0.72439" stop-color="#ae8323"></stop><stop offset="0.7404" stop-color="#a2771f"></stop><stop offset="0.76955" stop-color="#815715"></stop><stop offset="0.80828" stop-color="#4d2304"></stop><stop offset="0.81707" stop-color="#401600"></stop><stop offset="0.83095" stop-color="#5f350a"></stop><stop offset="0.84911" stop-color="#815715"></stop><stop offset="0.86636" stop-color="#9a6f1d"></stop><stop offset="0.88214" stop-color="#a97e21"></stop><stop offset="0.89512" stop-color="#ae8323"></stop><stop offset="0.91791" stop-color="#bb932f"></stop><stop offset="0.96207" stop-color="#debc4f"></stop><stop offset="1" stop-color="#ffe46e"></stop></linearGradient><linearGradient id="linear-gradient-2" x1="83.7502" y1="159.60846" x2="83.7502" y2="3.84869" gradientTransform="translate(153.00361 -12.33393) rotate(80.78253)" xlink:href="#linear-gradient"></linearGradient><linearGradient id="linear-gradient-3" x1="83.75015" y1="7.40864" x2="83.75015" y2="151.47545" gradientTransform="translate(83.75014 -34.69047) rotate(45)" gradientUnits="userSpaceOnUse"><stop offset="0" stop-color="#1f1f1f"></stop><stop offset="0.45488" stop-color="#0f0f0f"></stop><stop offset="1"></stop></linearGradient><linearGradient id="linear-gradient-4" x1="84.13075" y1="66.82329" x2="84.13075" y2="94.88628" gradientTransform="matrix(1, 0, 0, 1, 0, 0)" xlink:href="#linear-gradient"></linearGradient><linearGradient id="linear-gradient-8" x1="172.94153" y1="61.0288" x2="40.06908" y2="87.60322" gradientUnits="userSpaceOnUse"><stop offset="0" stop-color="#fff"></stop><stop offset="0.08233" stop-color="#dadada"></stop><stop offset="0.22222" stop-color="#a1a1a1"></stop><stop offset="0.36261" stop-color="#707070"></stop><stop offset="0.50021" stop-color="#474747"></stop><stop offset="0.63456" stop-color="#282828"></stop><stop offset="0.76464" stop-color="#121212"></stop><stop offset="0.88861" stop-color="#050505"></stop><stop offset="1"></stop></linearGradient></defs><g style="isolation: isolate"><g id="Layer_2" data-name="Layer 2"><g id="Layer_1-2" data-name="Layer 1"><g><g><circle cx="83.75017" cy="83.75013" r="83.75019" transform="translate(-34.69042 83.75016) rotate(-45)" fill="url(#linear-gradient)"></circle><circle cx="83.7502" cy="83.75013" r="78.91848" transform="translate(-12.33379 153.00362) rotate(-80.78253)" fill="url(#linear-gradient-2)"></circle><circle cx="83.75018" cy="83.75013" r="76.58309" transform="translate(-34.69042 83.75016) rotate(-45)" fill="url(#linear-gradient-3)"></circle></g><g><g><path d="M61.38856,94.62358,61.351,77.23882,52.73377,91.62651H50.56044L41.94325,77.46392V94.62358h-4.646V68.39653H41.306l10.416,17.38526L61.95057,68.39653h4.00879l.0376,26.22705Z" fill="#fff"></path><path d="M87.03456,76.50835q2.34081,2.11743,2.34082,6.38818V94.62358h-4.4209V92.188a5.445,5.445,0,0,1-2.4541,2.00488,9.59793,9.59793,0,0,1-3.84034.69336,9.41478,9.41478,0,0,1-3.93408-.76856A6.07263,6.07263,0,0,1,72.122,91.982a5.414,5.414,0,0,1-.918-3.09082,5.29963,5.29963,0,0,1,2.00439-4.32763q2.00391-1.62965,6.31348-1.62989h5.17041v-.29931a4.09951,4.09951,0,0,0-1.25537-3.22217,5.42922,5.42922,0,0,0-3.728-1.124,10.7622,10.7622,0,0,0-3.31543.52441,8.15357,8.15357,0,0,0-2.7539,1.46094L71.8036,76.86431a11.36489,11.36489,0,0,1,3.78418-1.83594,16.847,16.847,0,0,1,4.6831-.63721Q84.69178,74.39116,87.03456,76.50835Zm-4.272,14.16309a4.3846,4.3846,0,0,0,1.92969-2.30469V86.04351h-4.8335q-4.04589,0-4.04638,2.66015a2.38738,2.38738,0,0,0,1.01172,2.02344,4.635,4.635,0,0,0,2.81006.749A6.04712,6.04712,0,0,0,82.76258,90.67144Z" fill="#fff"></path><path d="M107.39784,93.53765a5.53374,5.53374,0,0,1-2.00489,1.01172,9.03514,9.03514,0,0,1-2.49121.33691,7.06922,7.06922,0,0,1-5.0957-1.72363,6.63117,6.63117,0,0,1-1.79883-5.02051v-9.6294H92.71034V74.76616h3.29687V70.19487h4.6836v4.57129h5.35742v3.74658h-5.35742v9.51709a3.1663,3.1663,0,0,0,.71191,2.2295,2.6717,2.6717,0,0,0,2.06055.76757,4.116,4.116,0,0,0,2.623-.82421Z" fill="#fff"></path><path d="M128.67811,76.6021q2.28516,2.21118,2.28613,6.55664V94.62358h-4.68359V83.75835a5.62,5.62,0,0,0-1.23633-3.95313,4.57473,4.57473,0,0,0-3.52246-1.33007,5.4097,5.4097,0,0,0-4.084,1.55517,6.19739,6.19739,0,0,0-1.49805,4.477V94.62358h-4.68359V66.82329h4.68359V76.939a7.6147,7.6147,0,0,1,2.86621-1.89209,10.52584,10.52584,0,0,1,3.80273-.65576A8.36035,8.36035,0,0,1,128.67811,76.6021Z" fill="#fff"></path></g><g><path d="M61.38856,94.62358,61.351,77.23882,52.73377,91.62651H50.56044L41.94325,77.46392V94.62358h-4.646V68.39653H41.306l10.416,17.38526L61.95057,68.39653h4.00879l.0376,26.22705Z" fill="url(#linear-gradient-4)"></path><path d="M87.03456,76.50835q2.34081,2.11743,2.34082,6.38818V94.62358h-4.4209V92.188a5.445,5.445,0,0,1-2.4541,2.00488,9.59793,9.59793,0,0,1-3.84034.69336,9.41478,9.41478,0,0,1-3.93408-.76856A6.07263,6.07263,0,0,1,72.122,91.982a5.414,5.414,0,0,1-.918-3.09082,5.29963,5.29963,0,0,1,2.00439-4.32763q2.00391-1.62965,6.31348-1.62989h5.17041v-.29931a4.09951,4.09951,0,0,0-1.25537-3.22217,5.42922,5.42922,0,0,0-3.728-1.124,10.7622,10.7622,0,0,0-3.31543.52441,8.15357,8.15357,0,0,0-2.7539,1.46094L71.8036,76.86431a11.36489,11.36489,0,0,1,3.78418-1.83594,16.847,16.847,0,0,1,4.6831-.63721Q84.69178,74.39116,87.03456,76.50835Zm-4.272,14.16309a4.3846,4.3846,0,0,0,1.92969-2.30469V86.04351h-4.8335q-4.04589,0-4.04638,2.66015a2.38738,2.38738,0,0,0,1.01172,2.02344,4.635,4.635,0,0,0,2.81006.749A6.04712,6.04712,0,0,0,82.76258,90.67144Z" fill="url(#linear-gradient-4)"></path><path d="M107.39784,93.53765a5.53374,5.53374,0,0,1-2.00489,1.01172,9.03514,9.03514,0,0,1-2.49121.33691,7.06922,7.06922,0,0,1-5.0957-1.72363,6.63117,6.63117,0,0,1-1.79883-5.02051v-9.6294H92.71034V74.76616h3.29687V70.19487h4.6836v4.57129h5.35742v3.74658h-5.35742v9.51709a3.1663,3.1663,0,0,0,.71191,2.2295,2.6717,2.6717,0,0,0,2.06055.76757,4.116,4.116,0,0,0,2.623-.82421Z" fill="url(#linear-gradient-4)"></path><path d="M128.67811,76.6021q2.28516,2.21118,2.28613,6.55664V94.62358h-4.68359V83.75835a5.62,5.62,0,0,0-1.23633-3.95313,4.57473,4.57473,0,0,0-3.52246-1.33007,5.4097,5.4097,0,0,0-4.084,1.55517,6.19739,6.19739,0,0,0-1.49805,4.477V94.62358h-4.68359V66.82329h4.68359V76.939a7.6147,7.6147,0,0,1,2.86621-1.89209,10.52584,10.52584,0,0,1,3.80273-.65576A8.36035,8.36035,0,0,1,128.67811,76.6021Z" fill="url(#linear-gradient-4)"></path></g></g><path d="M121.9161,17.3408A76.59569,76.59569,0,1,0,60.5253,156.7436C52.9336,100.2421,79.0377,45.8956,121.9161,17.3408Z" fill="url(#linear-gradient-8)" style="mix-blend-mode: screen"></path></g></g></g></g></svg>